<svg xmlns="http://www.w3.org/2000/svg" viewBox="0 0 909.8 909.8" xmlns:v="https://vecta.io/nano"><path d="M823.6 684.9c.1 3-1 4.8-3.4 6.5l-104.6 74c-8.8 6.2-17.2 12.8-26.4 18.3h-4.9c-2.6-1.2-4.8-3-7-4.7l-108.6-84.1c-1.8-1.4-2.5-2.8-2.5-5.1l-.2-75-.3-61.6c0-.9.4-2-.4-2.6-1-.7-1.9.4-2.6.9L463.9 612c-5.8 3.6-11.6 3.6-17.5 0l-98.8-60.5c-.7-.5-1.5-1.4-2.4-1-1.1.5-.6 1.8-.6 2.7l-.4 71.2V689c0 2.8-.9 4.6-3.1 6.4l-95.5 73.9c-6.4 4.9-12.5 10.2-19.5 14.4h-4.9l-6.9-4.4-124.8-88.4c-1.9-1.3-2.8-2.8-2.7-5.2.2-4.4-.2-415.9 0-443.9.1-11.3 2.7-9.9 10.6-16.6.2-.2.4-.4.6-.5L206.6 131c4.2-3.7 5-3.8 9.7-.9.4.2.8.5 1.1.7L452 290.7c1.6 1.1 2.8 1 4.4 0l236.4-161c3.7-2.4 4.9-2.2 8.2.6l11.3 9.9 105 90.3c2.2 1.9 6.5 5 6.5 7.9m-718.1 231c.3 31.4-.7 66.4-.6 101.4 0 7.1-.3 14.2-.4 21.3l-.6 85.6c0 1.8.6 3.1 2.1 4.1l16.1 10.7 86.6 61.3c.7.5 1.4 1.6 2.3 1.2 1.1-.5.5-1.8.5-2.7l-.3-36.5-.5-108-.8-140.4c0-1.5-.1-3.1.1-4.6.7-5.5 5.3-8.8 10.8-7.8 2.6.5 5 1.5 7.3 2.9l38.2 23.3 185.6 113.6c2.2 1.4 3.9 1.4 6.1 0l223.3-136.6c2.4-1.5 4.9-2.7 7.7-3.2 5.1-.9 9.6 1.9 10.6 7 .3 1.5.3 3.1.3 4.6l-.3 39.5-.5 108.8-.7 137.4c0 .9-.5 2.2.5 2.7.9.4 1.6-.6 2.3-1.2l70.8-50.1c10.1-7.2 20.5-14.2 30.2-22 2.6-2.1 4-4.3 3.8-7.8-.3-9-.3-18-.4-27l-.5-63.8c-.5-21.3 0-42.5-.5-63.8l-.6-65.4c-.5-21 0-42-.5-63s-.1-42-.5-63c-.4-17-.2-34-.3-51l-.4-23.2c-.1-2.6-.4-2.8-2.6-1.4l-.9.6-172.3 111.7-163.1 105.6c-5.5 3.5-11.2 3.5-16.7 0L408 445 111 252.4c-.8-.5-1.6-1.6-2.6-.9-.8.5-.5 1.7-.5 2.6l-.4 22.9-1.1 128.1-.7 64.3z" fill="#f1718c"/></svg>
